<svg width="172" height="63" viewBox="0 0 172 63" fill="none" xmlns="http://www.w3.org/2000/svg">
<path fill-rule="evenodd" clip-rule="evenodd" d="M90.4598 51.5593C83.1354 59.0196 72.5192 63 63.3788 63C50.5625 63 39.0245 56.4495 30.2956 45.5546C29.6098 44.6979 30.2243 43.5303 31.0473 44.1975C40.4675 51.7716 52.1152 56.3281 64.1469 56.3281C72.2613 56.3281 81.1878 54.0082 89.3955 49.1938C90.6354 48.466 91.6723 50.3159 90.4598 51.5593Z" fill="#FF9900"/>
<path fill-rule="evenodd" clip-rule="evenodd" d="M94.4934 46.2804C93.5264 44.7308 88.077 45.5482 85.631 45.9108C84.8858 46.0245 84.7721 45.2142 85.4433 44.6313C89.7835 40.8141 96.9053 41.9159 97.7358 43.1954C98.5663 44.482 97.5196 53.4029 93.4411 57.6608C92.8154 58.3148 92.2181 57.9665 92.4968 57.0993C93.4127 54.2417 95.4662 47.8371 94.4934 46.2804Z" fill="#FF9900"/>
<path d="M35.9888 26.52C35.9621 25.9333 35.8288 25.4933 35.5888 25.2C35.3488 24.88 34.9088 24.6933 34.2688 24.64C34.0821 24.7733 33.8288 25.2267 33.5088 26C33.2154 26.7467 33.0288 27.5467 32.9488 28.4C32.6821 29.68 32.5488 30.96 32.5488 32.24C32.5754 33.5467 32.7888 34.5067 33.1888 35.12C33.2421 35.2267 33.2954 35.2667 33.3488 35.24C33.4821 35.24 33.6954 34.9733 33.9888 34.44C35.4021 31.88 36.0688 29.24 35.9888 26.52ZM37.2288 34.16L36.6288 35.72C36.6288 35.7733 36.2421 36.3467 35.4688 37.44C35.2288 37.9467 34.7754 38.2267 34.1088 38.28C33.4688 38.3333 32.8421 38.2667 32.2288 38.08C31.4021 37.7867 30.7754 37.44 30.3488 37.04C29.9221 36.64 29.4954 35.9733 29.0688 35.04C28.6688 34.08 28.4554 33.2933 28.4288 32.68C28.2954 31.8 28.2288 31.24 28.2288 31V30.04C28.2288 29.08 28.2688 28.52 28.3488 28.36C28.3754 28.2533 28.4421 27.9733 28.5488 27.52C28.6821 26.4 29.0021 25.3333 29.5088 24.32C30.4954 22.3733 31.5088 21.3733 32.5488 21.32H32.7488C32.8021 21.3467 32.8821 21.36 32.9888 21.36H33.5088C34.4421 21.44 35.0154 21.52 35.2288 21.6C35.6288 21.7067 35.9754 21.76 36.2688 21.76L37.3088 21.96C37.6288 21.9333 38.0421 22 38.5488 22.16C39.0821 22.32 39.3621 22.44 39.3888 22.52C39.4421 22.6 39.5221 22.8933 39.6288 23.4C39.7354 23.9067 39.8021 24.28 39.8288 24.52C39.8821 24.7333 39.9221 24.96 39.9488 25.2C40.1621 27.1467 40.5088 28.96 40.9888 30.64C41.0154 30.72 41.0421 30.84 41.0688 31C41.0954 31.16 41.1888 31.48 41.3488 31.96C41.5088 32.4133 41.6288 32.8 41.7088 33.12C41.7888 33.44 41.9354 33.8667 42.1488 34.4C42.3088 34.8 42.5488 35.2667 42.8688 35.8C43.4554 36.6267 43.1488 37.2667 41.9488 37.72C41.7888 37.7733 41.5088 37.8 41.1088 37.8C41.0288 37.8 40.7754 37.6667 40.3488 37.4C40.0821 37.4 39.8288 37.2533 39.5888 36.96L39.2688 36.88C39.0821 36.6933 38.9221 36.6 38.7888 36.6C38.7354 36.5467 38.2554 35.4667 37.3488 33.36C37.2688 33.6533 37.2288 33.92 37.2288 34.16ZM47.4953 21.48H47.5753C47.922 21.3733 48.482 21.4133 49.2553 21.6C49.522 21.68 49.682 22.44 49.7353 23.88C49.842 24.9733 49.8953 25.7333 49.8953 26.16C49.8953 26.56 49.9086 26.8 49.9353 26.88V29.56L50.1353 29.6C50.1353 29.5733 50.162 29.4133 50.2153 29.12C50.3486 28.3733 50.4953 27.8 50.6553 27.4C50.762 27.2933 50.8153 27.16 50.8153 27C50.842 26.84 50.922 26.6667 51.0553 26.48C51.2153 25.7333 51.6153 24.76 52.2553 23.56C52.4686 23.0533 52.6686 22.68 52.8553 22.44C53.0686 22.1733 53.3753 22.08 53.7753 22.16C54.202 22.24 54.5486 22.3867 54.8153 22.6C55.0286 22.6267 55.282 22.6667 55.5753 22.72L56.7353 22.96C56.842 22.9867 56.9886 23.08 57.1753 23.24C57.362 23.3733 57.442 23.5467 57.4153 23.76C57.3886 23.9733 57.362 24.6 57.3353 25.64V26.28L57.1753 27.84C57.1753 28.2667 57.202 28.52 57.2553 28.6L57.4153 28.72L57.7353 26.88C57.7353 26.6933 57.8153 26.52 57.9753 26.36L58.4553 25.2C58.4553 25.12 58.5353 24.9467 58.6953 24.68C58.7486 24.4933 58.8686 24.2267 59.0553 23.88C59.2686 23.5333 59.5353 23.2 59.8553 22.88C59.8553 22.6667 60.0953 22.52 60.5753 22.44C60.9486 22.04 61.562 22.0267 62.4153 22.4C62.5753 22.4 62.722 22.4267 62.8553 22.48C62.8553 22.5333 62.9486 22.5733 63.1353 22.6C63.3486 22.6267 63.602 22.8 63.8953 23.12V23.56C63.8953 23.8267 63.9086 24.0267 63.9353 24.16C63.9086 24.3467 63.922 24.5867 63.9753 24.88V25.36C64.002 25.5733 64.0686 26.24 64.1753 27.36V27.8C64.2553 27.96 64.282 28.1333 64.2553 28.32C64.2553 28.48 64.2553 28.6533 64.2553 28.84C64.3353 28.92 64.402 29.1467 64.4553 29.52C64.5086 29.8667 64.482 30.2133 64.3753 30.56L64.4553 30.92V32.04C64.5886 32.1467 64.6553 32.3067 64.6553 32.52L64.7753 33.2C64.7753 33.68 64.842 34.16 64.9753 34.64V35.08L65.1753 36.12V36.36L65.1353 36.76C65.1353 37.0533 64.9753 37.2667 64.6553 37.4C64.602 37.4267 64.522 37.4667 64.4153 37.52C64.3353 37.5733 64.1886 37.6 63.9753 37.6L63.1353 37.32L62.7353 37.04C62.522 37.0933 62.242 37 61.8953 36.76C61.8953 36.52 61.802 36.3067 61.6153 36.12C61.2953 36.0133 61.1753 35.8 61.2553 35.48C61.282 35.4533 61.2153 35.3067 61.0553 35.04C61.1086 34.9867 61.0686 34.6933 60.9353 34.16C60.9353 33.92 60.9086 33.6933 60.8553 33.48C60.8286 33.24 60.802 33 60.7753 32.76C60.7753 32.52 60.7353 32.3067 60.6553 32.12C60.682 32.12 60.6953 32.0267 60.6953 31.84C60.6953 31.6533 60.6686 31.48 60.6153 31.32V30.4L60.4153 28.8L59.8153 30.64C59.4153 31.68 59.2153 32.24 59.2153 32.32L57.9353 36.32C57.8553 36.48 57.6953 36.6667 57.4553 36.88C57.242 37.0667 57.0553 37.16 56.8953 37.16C56.842 37.08 56.6953 37.04 56.4553 37.04C56.242 37.04 55.9753 37.1067 55.6553 37.24C54.7486 37.3467 54.2286 37.0667 54.0953 36.4L54.0153 35.48L54.0553 34.56C54.002 34.48 53.9753 34.2933 53.9753 34L53.9353 33.44V31.72L53.8553 29.68V27.72C53.082 29.8267 52.602 31.2 52.4153 31.84L50.9353 36.6C50.642 37.3733 50.1086 37.7867 49.3353 37.84L48.8953 37.92C48.3086 38.0533 47.922 37.96 47.7353 37.64L47.3353 36.96C47.2286 36.3733 47.122 36.04 47.0153 35.96C46.962 35.5867 46.8286 35.2 46.6153 34.8L46.4153 33.84C46.4153 33.76 46.3886 33.64 46.3353 33.48V32.76C46.2553 32.5467 46.1886 32.12 46.1353 31.48C46.082 30.8133 46.0686 30.28 46.0953 29.88C45.9886 29.56 45.962 29.16 46.0153 28.68V27.96C45.882 27.3467 45.8153 26.4133 45.8153 25.16V24.6C45.9486 23.8 46.0153 23.2667 46.0153 23C46.0153 22.7067 46.082 22.4933 46.2153 22.36C46.3486 22.2 46.7753 21.9067 47.4953 21.48ZM77.3709 27.56C77.3976 27.48 77.4509 27.0133 77.5309 26.16C77.4776 26.08 77.4109 25.7867 77.3309 25.28C77.1176 24.8533 76.8376 24.5333 76.4909 24.32C76.0643 24.1333 75.8109 24.04 75.7309 24.04C75.4909 24.12 75.3176 24.2133 75.2109 24.32C75.1309 24.4 74.9043 24.7733 74.5309 25.44C74.1843 26.1067 73.8909 27.2133 73.6509 28.76C73.4376 30.3067 73.3309 31.4267 73.3309 32.12C73.3309 32.8133 73.3576 33.6667 73.4109 34.68C73.4643 35.6667 73.6776 36.1333 74.0509 36.08C74.3976 36.0267 74.8776 35.0667 75.4909 33.2C75.5176 33.0667 75.6109 32.8267 75.7709 32.48L77.3709 27.56ZM82.0509 25.92C82.0509 27.3333 82.1976 28.6267 82.4909 29.8C82.6243 30.9733 82.8643 32.2267 83.2109 33.56C83.2909 34.0933 83.3176 34.36 83.2909 34.36C83.9576 35.8267 84.3309 36.7067 84.4109 37C84.4909 37.2667 84.4776 37.4933 84.3709 37.68V37.64C84.2909 37.88 84.0376 38.0933 83.6109 38.28C83.2109 38.4933 82.8509 38.6267 82.5309 38.68C81.5176 39 80.9176 38.6133 80.7309 37.52C80.6243 37.44 80.4643 37.28 80.2509 37.04C80.0643 36.7733 79.9576 36.56 79.9309 36.4C79.9043 36.2133 79.8109 36.04 79.6509 35.88C79.5976 35.7467 79.4776 35.5733 79.2909 35.36C79.1043 35.1467 78.9976 34.9333 78.9709 34.72L78.8509 33.64L78.7709 33.6C78.3443 34.48 78.0643 35.0933 77.9309 35.44C77.6109 36.3467 77.0509 37.3867 76.2509 38.56C75.3443 39.5733 74.2376 39.8667 72.9309 39.44C72.4509 39.4133 72.0643 39.2667 71.7709 39C71.5043 38.7333 71.3176 38.5867 71.2109 38.56C71.0509 38.5067 70.8243 38.3067 70.5309 37.96C70.0509 37.32 69.7576 36.3733 69.6509 35.12V34.08C69.7309 33.9467 69.7309 33.3067 69.6509 32.16V31.92C69.4909 31.12 69.4109 30.64 69.4109 30.48C69.4109 30.32 69.4376 30.1067 69.4909 29.84C69.5443 29.5733 69.5576 29.4133 69.5309 29.36C69.5043 29.28 69.4909 29.16 69.4909 29V28.4L69.6909 26.24C69.9843 25.3067 70.3043 24.4667 70.6509 23.72C70.7576 23.2667 70.9576 22.9067 71.2509 22.64C71.9176 21.92 72.2776 21.5067 72.3309 21.4C72.5176 21 73.2109 20.68 74.4109 20.44L75.0909 20.48C75.3576 20.48 75.5976 20.52 75.8109 20.6C76.0243 20.6533 76.1709 20.68 76.2509 20.68C76.6243 20.8667 76.9309 20.96 77.1709 20.96C77.4109 20.96 77.8109 21.1467 78.3709 21.52C78.5309 21.5467 78.9309 21.7733 79.5709 22.2C80.2643 22.6533 80.6643 22.9067 80.7709 22.96L81.8109 23.32C82.1043 23.56 82.2509 23.6933 82.2509 23.72C82.2509 23.7467 82.1843 24.48 82.0509 25.92ZM85.7397 22.08C85.7397 21.4133 86.3264 21.0533 87.4997 21C87.633 21 87.7797 20.9733 87.9397 20.92H88.0197C89.0864 20.84 89.7797 20.8133 90.0997 20.84C90.4464 20.84 90.713 20.8267 90.8997 20.8H92.2597C92.2597 20.8267 92.5397 20.84 93.0997 20.84H94.0197C94.393 20.8667 94.673 20.92 94.8597 21C94.8597 21 95.2597 21.04 96.0597 21.12C96.353 21.12 96.713 21.16 97.1397 21.24C97.5664 21.2933 98.073 21.6133 98.6597 22.2C99.273 22.7867 99.6864 23.52 99.8997 24.4C100.086 24.8533 100.193 25.2 100.22 25.44C100.246 25.6533 100.086 25.96 99.7397 26.36C99.4197 26.76 99.2064 27 99.0997 27.08C99.0197 27.16 98.9664 27.2267 98.9397 27.28C98.913 27.3067 98.673 27.6133 98.2197 28.2C98.113 28.28 97.993 28.44 97.8597 28.68C97.753 28.92 97.6197 29.1067 97.4597 29.24L96.6997 29.96C96.593 30.0667 96.273 30.4667 95.7397 31.16C95.2064 31.8267 94.7664 32.2933 94.4197 32.56C94.073 32.8267 93.6997 33.2133 93.2997 33.72C93.4064 33.64 93.4197 33.6533 93.3397 33.76C93.233 33.8667 93.033 34.0667 92.7397 34.36C92.0197 35 91.8197 35.4533 92.1397 35.72L92.4197 35.84L93.3797 35.72C93.513 35.72 93.8864 35.6 94.4997 35.36C95.0597 35.2 95.6464 35.1467 96.2597 35.2C96.8997 35.12 97.3664 35.0667 97.6597 35.04C97.953 34.9867 98.113 34.96 98.1397 34.96L98.6597 34.84C99.8597 34.8667 100.353 35.4667 100.14 36.64C100.14 37.2267 99.8864 37.6267 99.3797 37.84L99.0997 38.04L97.9797 38.52C97.8197 38.6267 97.6064 38.6933 97.3397 38.72C96.6197 38.9333 95.8197 39.0933 94.9397 39.2C94.0864 39.3333 93.4997 39.48 93.1797 39.64C92.8597 39.6933 92.4597 39.6933 91.9797 39.64C91.4997 39.6133 91.0597 39.6 90.6597 39.6C89.6197 39.4667 88.8197 38.9733 88.2597 38.12C88.0464 38.3333 87.8864 38.1867 87.7797 37.68C87.7264 37.4933 87.6864 37.2533 87.6597 36.96C87.4464 36.7467 87.2864 36.36 87.1797 35.8V35C87.1797 34.9467 87.2864 34.7067 87.4997 34.28C87.4997 33.9867 87.713 33.5467 88.1397 32.96C88.2997 32.8267 88.473 32.6 88.6597 32.28C88.873 31.96 89.473 31.4667 90.4597 30.8C91.0464 30.32 91.433 29.9867 91.6197 29.8C91.833 29.5867 92.0597 29.3733 92.2997 29.16C92.5397 28.9467 92.7664 28.72 92.9797 28.48L93.3397 28.2C93.9264 27.8 94.4464 27.2933 94.8997 26.68L95.5797 25.8C95.713 25.5867 95.6864 25.4133 95.4997 25.28C94.913 24.88 93.673 24.8133 91.7797 25.08L90.2997 25.16C90.2464 25.1867 89.593 25.2667 88.3397 25.4H87.7397C87.553 25.3467 87.2597 25.08 86.8597 24.6C86.4864 24.0933 86.193 23.6 85.9797 23.12C85.793 22.64 85.713 22.2933 85.7397 22.08ZM108.627 15.36H108.747C109.68 15.4133 110.28 15.6933 110.547 16.2C110.84 16.68 110.947 17.1467 110.867 17.6C110.814 18.0533 110.454 18.6133 109.787 19.28C109.147 19.9467 108.56 20.2667 108.027 20.24C107.867 20.24 107.547 20.16 107.067 20C106.614 19.84 106.374 19.7467 106.347 19.72C106.32 19.6133 106.24 19.5333 106.107 19.48C105.414 19.2133 105.027 18.5333 104.947 17.44C104.947 17.3333 105.027 17.2533 105.187 17.2C105.08 17.2 105.067 17.04 105.147 16.72C105.334 16.1333 105.747 15.7467 106.387 15.56C107.214 15.4 107.96 15.3333 108.627 15.36ZM108.547 25.48L107.867 32.16C107.867 32.32 107.867 32.48 107.867 32.64C107.867 32.7733 107.88 32.8933 107.907 33C107.88 33.1067 107.867 33.24 107.867 33.4V36.28C107.974 37.1867 107.974 37.72 107.867 37.88C107.707 37.9333 107.52 38.0133 107.307 38.12C107.094 38.2533 106.68 38.28 106.067 38.2C105.48 38.1467 105.054 38.0533 104.787 37.92L104.307 37.8C104.04 37.8 103.867 37.68 103.787 37.44C103.44 37.2267 103.254 36.9467 103.227 36.6C103.147 36.4667 103.24 36.28 103.507 36.04C103.48 35.9067 103.427 35.72 103.347 35.48C103.267 35.2133 103.24 34.9733 103.267 34.76C103.347 34.6267 103.307 34.4267 103.147 34.16C103.147 33.8667 103.187 33.5333 103.267 33.16C103.374 33.0533 103.4 32.6667 103.347 32C103.534 31.7333 103.627 31.36 103.627 30.88C103.52 30.4533 103.56 30.0267 103.747 29.6C103.934 29.1733 104.04 28.7467 104.067 28.32C104.12 27.6533 104.24 27 104.427 26.36C104.427 26.0933 104.547 25.6667 104.787 25.08C105.054 24.4933 105.227 24.1467 105.307 24.04L105.947 23.4L106.667 23.12H106.707C107.027 23.0133 107.347 23.0267 107.667 23.16C108.44 23.4533 108.907 23.68 109.067 23.84C108.96 23.9467 108.894 24.1067 108.867 24.32C108.84 24.5333 108.814 24.72 108.787 24.88C108.68 25.0133 108.6 25.2133 108.547 25.48ZM116.964 33.28C117.204 32.72 117.457 32.0667 117.724 31.32L118.604 29.08L118.964 28.4C113.55 34.8 113.604 34.7333 119.124 28.2L120.164 26.04C120.244 25.96 120.31 25.7867 120.364 25.52L121.404 23.96L122.204 23.24C122.364 23.16 122.537 23.0267 122.724 22.84C122.777 22.8933 122.99 22.84 123.364 22.68C123.604 22.68 124.084 22.72 124.804 22.8L125.604 23.08L127.404 24.16C127.777 24.5333 127.937 24.9333 127.884 25.36C127.857 25.68 127.71 26.56 127.444 28C127.23 29.1467 126.924 30.4667 126.524 31.96C126.31 33.16 126.244 34.0267 126.324 34.56C126.404 35.0933 126.444 35.4 126.444 35.48C126.497 35.64 126.564 35.8667 126.644 36.16C126.75 36.4533 126.777 36.6133 126.724 36.64C126.91 36.6667 127.004 36.8 127.004 37.04C127.217 37.6 127.284 37.9733 127.204 38.16C127.15 38.3733 126.977 38.6 126.684 38.84C126.417 39.08 125.924 39.2 125.204 39.2C124.777 39.1467 124.43 39.12 124.164 39.12C123.924 39.12 123.617 39.0267 123.244 38.84C122.47 38.28 122.03 37.7067 121.924 37.12C121.79 36.7467 121.71 36.4667 121.684 36.28C121.657 36.0933 121.644 35.96 121.644 35.88C121.51 35.08 121.524 34.2533 121.684 33.4C121.71 33.08 121.83 32.4267 122.044 31.44C122.257 30.4267 122.47 29.6267 122.684 29.04C122.684 28.4533 122.67 28.1467 122.644 28.12L121.084 31.16C120.924 31.5867 120.777 31.9067 120.644 32.12C120.51 32.2533 120.444 32.4133 120.444 32.6C120.23 32.8133 120.03 33.24 119.844 33.88C119.844 34.0667 119.83 34.2 119.804 34.28C119.777 34.36 119.67 34.56 119.484 34.88C119.324 35.1733 119.204 35.4533 119.124 35.72C119.07 35.9867 118.91 36.28 118.644 36.6C118.644 36.7067 118.47 37.2533 118.124 38.24C118.097 38.3467 117.817 38.44 117.284 38.52L116.524 38.44C116.337 38.3867 115.897 38.2533 115.204 38.04C114.51 37.8267 114.124 37.72 114.044 37.72C113.99 37.72 113.937 37.6933 113.884 37.64C113.43 37.5333 113.15 37.16 113.044 36.52V35.88C113.177 35.72 113.19 35.4133 113.084 34.96C113.137 34.6933 113.177 34.3867 113.204 34.04C113.124 33.9867 113.11 33.8933 113.164 33.76C113.217 32.9067 113.244 32.3067 113.244 31.96V31C113.297 30.12 113.364 29.1733 113.444 28.16C113.524 27.1467 113.564 26.4933 113.564 26.2V25.4C113.51 25.2667 113.497 24.96 113.524 24.48C113.47 23.9733 113.404 23.6667 113.324 23.56C113.244 23.4267 113.217 23.24 113.244 23L113.524 22.32C113.95 21.9733 114.67 21.9067 115.684 22.12C116.137 22.2 116.764 22.4667 117.564 22.92C117.617 23 117.75 23.1733 117.964 23.44C118.124 23.44 118.217 23.6667 118.244 24.12C118.217 24.36 118.204 24.56 118.204 24.72C118.177 24.7467 118.03 25.36 117.764 26.56C117.177 30.2667 116.884 32.28 116.884 32.6C116.884 32.92 116.91 33.1467 116.964 33.28ZM135.917 30.2L135.997 31.76L136.277 32.52L136.677 33.32C136.757 33.88 137.023 34.2133 137.477 34.32C137.797 34.3733 138.103 34.2 138.397 33.8C138.557 33.6667 138.677 33.5733 138.757 33.52C138.917 33.3867 138.997 33.0933 138.997 32.64C138.997 32.16 139.037 31.7733 139.117 31.48C139.09 31.3467 139.103 30.88 139.157 30.08C139.237 29.2533 139.303 28.6267 139.357 28.2C139.437 27.7467 139.463 27.44 139.437 27.28C139.25 27.04 139.077 26.5467 138.917 25.8C138.383 25.2667 138.023 24.9733 137.837 24.92C137.25 24.7067 136.89 24.68 136.757 24.84C136.57 25.0267 136.37 25.9067 136.157 27.48C135.997 27.7467 135.917 28.0933 135.917 28.52C135.943 28.92 135.943 29.2267 135.917 29.44V30.2ZM143.357 29.12C143.463 30.4533 143.517 31.4933 143.517 32.24L143.557 32.76L143.477 35.2C143.477 35.5733 143.463 35.92 143.437 36.24V36.88L143.277 37.92V38.32C143.277 39.3067 142.823 40.7067 141.917 42.52C141.597 43.1867 141.103 43.8667 140.437 44.56C139.317 45.76 137.943 46.3867 136.317 46.44C134.957 46.44 133.957 46.16 133.317 45.6L132.917 45.4C132.597 45.24 132.237 44.7333 131.837 43.88C131.837 43.8 131.77 43.6267 131.637 43.36C131.637 42.9867 131.717 42.6933 131.877 42.48C131.983 42.2667 132.343 42.08 132.957 41.92C133.223 41.8667 133.717 42.1333 134.437 42.72C134.97 43.3067 135.597 43.6133 136.317 43.64C137.063 43.7467 137.637 43.4 138.037 42.6C138.437 41.8 138.743 40.7333 138.957 39.4C139.063 38.8933 139.117 38.32 139.117 37.68C139.117 37.04 139.09 36.6133 139.037 36.4C138.317 36.7733 137.677 36.9333 137.117 36.88H136.757C136.543 36.9333 136.223 36.9333 135.797 36.88C135.37 36.8 134.97 36.6267 134.597 36.36L133.837 35.84C133.863 35.8667 133.85 35.88 133.797 35.88L133.597 35.76L133.037 35.32C132.797 35.1867 132.677 34.9333 132.677 34.56C132.49 34.4533 132.357 34.32 132.277 34.16C132.063 34.08 131.957 33.8933 131.957 33.6L131.757 32.8C131.757 32.6667 131.69 32.3333 131.557 31.8C131.423 31.5867 131.383 31.3733 131.437 31.16C131.517 30.9467 131.557 30.7733 131.557 30.64L131.677 29.28V29C131.597 28.92 131.597 28.6667 131.677 28.24C131.757 28.08 131.797 27.96 131.797 27.88C131.957 27.0267 132.077 26.4933 132.157 26.28C132.237 26.04 132.29 25.7733 132.317 25.48C132.37 25.1867 132.477 24.92 132.637 24.68L133.037 23.76C133.197 23.4667 133.623 23.0533 134.317 22.52C134.583 22.2533 134.917 22.08 135.317 22L136.437 22.08L137.597 22.36C137.623 22.36 138.117 22.56 139.077 22.96C139.077 22.4533 139.33 22.0267 139.837 21.68C140.05 21.4667 140.517 21.4533 141.237 21.64H141.597C141.89 21.6133 142.21 21.7333 142.557 22C142.717 22.1867 142.89 22.6133 143.077 23.28C143.263 25.76 143.357 27.7067 143.357 29.12Z" fill="white"/>
</svg>
