<svg width="8" height="8" viewBox="0 0 8 8" fill="none" xmlns="http://www.w3.org/2000/svg">
<path d="M4 0C2.3455 0 1 1.3455 1 3C1 5.0795 3.708 7.8115 3.823 7.927C3.872 7.9755 3.936 8 4 8C4.064 8 4.128 7.9755 4.177 7.927C4.292 7.8115 7 5.0795 7 3C7 1.3455 5.6545 0 4 0ZM4 7.3885C3.403 6.7495 1.5 4.5885 1.5 3C1.5 1.6215 2.6215 0.5 4 0.5C5.3785 0.5 6.5 1.6215 6.5 3C6.5 4.587 4.597 6.7495 4 7.3885Z" fill="white"/>
<path d="M4 1.5C3.173 1.5 2.5 2.173 2.5 3C2.5 3.827 3.173 4.5 4 4.5C4.827 4.5 5.5 3.827 5.5 3C5.5 2.173 4.827 1.5 4 1.5ZM4 4C3.4485 4 3 3.5515 3 3C3 2.4485 3.4485 2 4 2C4.5515 2 5 2.4485 5 3C5 3.5515 4.5515 4 4 4Z" fill="white"/>
</svg>
