<svg id="Layer_1" data-name="Layer 1" xmlns="http://www.w3.org/2000/svg" viewBox="0 0 2500 2500">
  <path d="M2147.31,457.56C1135.31-24.06,507.25,378.9,105.22,623.65c-24.88,15.43-67.17-3.6-30.48-45.74C208.68,415.5,647.63,24.06,1220.58,24.06c573.35,0,914.44,312.85,957.1,367.42,42.38,54.11,12.45,84-30.38,66.08Zm284.21,157c-27.17,35.38-165.25,42-252.14,31.31-87-10.37-217.66-63.56-206.31-95.5,5.83-12,17.73-6.59,77.51-1.22,60,6,227.9,27.18,262.89-18.57,35.16-46.06-53.56-265.49-69.77-300.88-15.65-35.39,6-44.51,35.39-20.94,29,23.56,81.51,84.57,116.75,170.92,35,86.82,56.33,207.93,35.67,234.88Z" fill="#f90"/>
  <path d="M1466.85,1657.93c0,126.37,3.19,231.76-60.68,344-51.56,91.24-133.17,147.32-224.46,147.32-124.55,0-197.09-94.89-197.09-235,0-276.48,247.72-326.65,482.23-326.65ZM1794,2448.57c-21.45,19.15-52.47,20.53-76.65,7.75-107.66-89.42-126.83-130.93-186.14-216.25-177.92,181.58-303.84,235.87-534.68,235.87-272.83,0-485.43-168.35-485.43-505.5,0-263.23,142.81-442.53,345.81-530.12,176.11-77.57,422-91.25,610-112.68v-42c0-77.11,5.92-168.35-39.24-235-39.69-59.77-115.42-84.41-182-84.41-123.63,0-234,63.41-261,194.81-5.48,29.2-26.92,57.94-56.11,59.31l-314.8-33.75c-26.46-6-55.65-27.38-48.35-68,72.43-381.4,416.87-496.34,725.27-496.34,157.86,0,364.06,42,488.62,161.51,157.85,147.35,142.79,344,142.79,558v505.43c0,151.93,63,218.53,122.27,300.66,21,29.19,25.55,64.33-.91,86.22-66.16,55.2-183.86,157.85-248.64,215.34l-.91-.91" fill-rule="evenodd"/>
</svg>
