<svg id="Layer_1" data-name="Layer 1" xmlns="http://www.w3.org/2000/svg" viewBox="0 0 1106 337">
  <g>
    <path d="M124.72,247,117,272.48c-14.68-1.24-24.24-5.94-29.83-19.05-8.86,14.6-22.61,19.79-37.3,19.79-24.71,0-40.33-17.07-40.33-41.07,0-28.71,20.52-44.3,58.05-44.3H80.19v-5.69c0-15.59-5.82-20.29-21-20.29-7.92,0-20,2.47-32.4,6.93l-8.39-25.74C34,136.88,51.06,133.41,65,133.41c35.9,0,51.29,16.09,51.29,46.52v51C116.33,241.05,118.89,244.77,124.72,247ZM80.19,232.64V209.38H71.1c-16.78,0-24.94,6.19-24.94,19.3,0,10.39,5.36,16.58,14.45,16.58C69.24,245.26,75.76,240.56,80.19,232.64Z" fill="#fff"/>
    <path d="M241.74,149.5,225.65,173c-7.69-6.68-14.92-9.65-23.31-9.65-15.85,0-24.94,11.39-24.94,40.83,0,29.2,9.79,38.11,24.47,38.11,8.86,0,14.92-3,23.08-9.65l16.79,25C230.31,267.28,217,273.22,200,273.22c-38,0-61.31-27.22-61.31-68.79,0-41.82,23.55-71,60.61-71C216.56,133.41,229.85,138.86,241.74,149.5Z" fill="#fff"/>
    <path d="M369.25,203.44c0,42.07-22.85,69.78-60.61,69.78-37.53,0-60.61-25.73-60.61-70,0-42.06,22.84-69.78,60.61-69.78S369.25,159.15,369.25,203.44Zm-83-.25c0,29.2,7.46,41.33,22.38,41.33S331,231.9,331,203.44c0-29.2-7.46-41.32-22.38-41.32S286.26,174.74,286.26,203.19Z" fill="#fff"/>
    <path d="M560.4,173v96H523.56V179.69c0-13.86-4.89-17.57-10.49-17.57-7.92,0-13.52,6.18-18.88,17.07V269H457.36V179.69c0-13.86-4.89-17.57-10.49-17.57-7.69,0-13.52,6.18-18.88,17.07V269H391.16V137.62h32.17L425.89,153c9.56-12.87,20.75-19.55,35.9-19.55,13.75,0,24.48,7.43,29.14,20.79,9.79-13.86,21.21-20.79,37.06-20.79C547.11,133.41,560.4,148,560.4,173Z" fill="#fff"/>
    <path d="M704.22,203c0,40.58-18.65,70.27-49.19,70.27-12.12,0-22.37-4.45-30.07-13.61V324L588.13,324V137.62h32.4l1.87,14.6c10.26-13.61,23.54-18.81,35-18.81C690,133.41,704.22,160.38,704.22,203Zm-38.23.49c0-32.66-7.46-41.32-20.28-41.32-8.16,0-15.38,5.69-20.75,15.34v55.43c5.13,7.92,11.19,11.63,18.89,11.63C657.6,244.52,666,232.89,666,203.44Z" fill="#fff"/>
    <path d="M834.06,247l-7.69,25.49c-14.69-1.24-24.25-5.94-29.84-19.05-8.86,14.6-22.61,19.79-37.3,19.79-24.71,0-40.33-17.07-40.33-41.07,0-28.71,20.52-44.3,58.05-44.3h12.59v-5.69c0-15.59-5.83-20.29-21-20.29-7.93,0-20,2.47-32.41,6.93l-8.39-25.74c15.62-6.18,32.64-9.65,46.62-9.65,35.9,0,51.29,16.09,51.29,46.52v51C825.67,241.05,828.23,244.77,834.06,247Zm-44.52-14.35V209.38h-9.1c-16.78,0-24.94,6.19-24.94,19.3,0,10.39,5.36,16.58,14.45,16.58C778.58,245.26,785.11,240.56,789.54,232.64Z" fill="#fff"/>
    <path d="M961.8,173v96H925V179.69c0-13.86-4.43-17.57-11.66-17.57-8.15,0-14.92,6.18-21.44,17.07V269H855V137.62h32.17l2.56,15.59c10.49-13.12,22.38-19.8,37.76-19.8C949,133.41,961.8,148,961.8,173Z" fill="#fff"/>
    <path d="M985.81,324l-4-27.47c24.24-3.21,33.1-10.64,39.86-27.46h0a16.71,16.71,0,0,1-16.06-12.1l-34.29-119.3h39.16L1032.67,244l24.24-106.4h38l-39.4,131.64C1045.72,302.42,1024.74,321.72,985.81,324Z" fill="#fff"/>
  </g>
  <path d="M728,71.54C646.5,32,528.24,10.94,426.56,10.94c-142.73,0-271.16,34.7-368.29,92.5-7.6,4.5-.76,10.7,8.36,7.2,104.88-40.1,234.53-64.3,368.44-64.3,90.29,0,189.69,12.3,281,37.8,13.84,3.8,25.39-6,11.86-12.6" fill="#f90" fill-rule="evenodd"/>
  <path d="M747.67,96.14c-6.8,8.8-45.3,4.1-62.6,2.1-5.3-.6-6.1,3.9-1.3,7.2,30.7,21.6,81,15.3,86.8,8.1s-1.5-57.7-30.3-81.8c-4.4-3.7-8.6-1.7-6.7,3.2,6.5,16.1,21,52.4,14.1,61.2" fill="#f90" fill-rule="evenodd"/>
</svg>
